<svg version="1.1" xmlns="http://www.w3.org/2000/svg" viewBox="0 0 4399.000274658207 2349.1924409412227" width="4399.000274658207" height="2349.1924409412227">
  <!-- svg-source:excalidraw -->
  
  <defs>
    <style>
      @font-face {
        font-family: "Virgil";
        src: url("https://excalidraw.com/Virgil.woff2");
      }
      @font-face {
        font-family: "Cascadia";
        src: url("https://excalidraw.com/Cascadia.woff2");
      }
    </style>
  </defs>
  <rect x="0" y="0" width="4399.000274658207" height="2349.1924409412227" fill="#ffffff"></rect><g stroke-linecap="round" transform="translate(2498.7741299583795 10) rotate(0 255.99998474121094 69.50004577636719)"><path d="M0.73 0.43 C160.87 0.14, 322.08 -1.12, 512.58 0.53 M-0.2 -0.05 C151.84 -2, 304.39 -1.9, 511.86 -0.28 M511.06 1.37 C511.94 44.41, 513.36 92.22, 513.72 138.96 M511.01 0.61 C512.79 37.1, 513.44 74.81, 512.96 139.6 M512.1 139.63 C342.96 137.66, 175.57 137.51, -0.47 138.41 M512.13 139.06 C358.73 137.57, 205.02 137.58, -0.27 138.98 M-1.33 139.61 C-1.43 105.95, -1.86 72.69, -1.28 -1.03 M-0.6 138.19 C-1.81 108.12, -0.29 78.55, 0.16 -0.72" stroke="#e67700" stroke-width="1" fill="none"></path></g><g transform="translate(2531.2940792991994 63.20368769831566) rotate(0 229.45140036558314 23.82482591655412)"><text x="229.45140036558342" y="33.64965183310835" font-family="Virgil, Segoe UI Emoji" font-size="37.53327316178368px" fill="#e67700" text-anchor="middle" style="white-space: pre;" direction="ltr">States of Consciousness</text></g><g stroke-linecap="round"><g transform="translate(2850.7371120198713 156.58764734508304) rotate(0 160.9894285224591 49.10457439329298)"><path d="M0.05 -0.16 C53.59 16.19, 267.33 81.4, 321.21 97.94 M-1.39 -1.29 C52.52 15.28, 269.28 83.06, 323.37 99.5" stroke="#000000" stroke-width="2" fill="none"></path></g><g transform="translate(2850.7371120198713 156.58764734508304) rotate(0 160.9894285224591 49.10457439329298)"><path d="M293.14 99.23 C302.28 102.31, 312.99 100.82, 325.07 100.74 M293.53 100.55 C301.4 101.45, 310.52 100.21, 324.16 98.59" stroke="#000000" stroke-width="2" fill="none"></path></g><g transform="translate(2850.7371120198713 156.58764734508304) rotate(0 160.9894285224591 49.10457439329298)"><path d="M299.2 79.62 C306.53 88.48, 315.46 92.76, 325.07 100.74 M299.58 80.95 C305.72 87.12, 313.2 91.17, 324.16 98.59" stroke="#000000" stroke-width="2" fill="none"></path></g></g><g stroke-linecap="round" transform="translate(1947.2740333193833 680.3333282470703) rotate(0 255.99998474121094 69.50004577636719)"><path d="M0.17 -0.5 C118.79 0.41, 239.14 -0.03, 511.25 -0.73 M-0.22 -0.07 C171.72 -1.12, 343.27 -1.43, 512.21 -0.06 M513.16 1.08 C511.32 33.7, 509.19 70.13, 511.58 138.35 M511.8 -0.92 C510.57 42.36, 510.84 85.64, 511.15 139.26 M511.71 139.48 C369.84 138.58, 228.76 137.78, 0.3 139.14 M511.9 139.33 C337.66 137.85, 163.2 137.96, -0.34 139.05 M-1.22 137.77 C0.66 88.7, 0.92 40.15, 1.34 0.9 M-0.85 139.14 C-0.69 83.25, 1.12 27.6, 0.32 -0.77" stroke="#e67700" stroke-width="1" fill="none"></path></g><g transform="translate(2043.7941047305176 721.0833358764648) rotate(0 161 32.5)"><text x="161" y="46" font-family="Virgil, Segoe UI Emoji" font-size="51.20001220703126px" fill="#e67700" text-anchor="middle" style="white-space: pre;" direction="ltr">Quantitative</text></g><g stroke-linecap="round" transform="translate(1363.5240638369614 699.8332977294922) rotate(0 255.99998474121094 69.50004577636719)"><path d="M-0.02 -0.78 C153.85 0.62, 309.65 0.46, 512.58 -0.43 M-0.22 -0.14 C123.85 -0.72, 248.39 -1.14, 512.15 -0.01 M510.46 -0.65 C509.8 39.51, 511.07 82.33, 513.6 137.36 M512.94 -0.09 C509.96 33.5, 510.9 66.79, 512.15 138.94 M511.34 139.38 C351.42 137.03, 191.34 138.12, -0.13 138.84 M511.82 139.33 C309.47 138.02, 106.6 138.02, -0.35 138.89 M1.2 140.27 C-1.14 111.21, 0.58 81.27, -0.17 1.84 M0.8 138.3 C-0.93 106.13, -0.63 72.18, 0.29 0.67" stroke="#e67700" stroke-width="1" fill="none"></path></g><g transform="translate(1480.0441352480957 740.5833053588867) rotate(0 141 32.5)"><text x="141" y="46" font-family="Virgil, Segoe UI Emoji" font-size="51.20001220703126px" fill="#e67700" text-anchor="middle" style="white-space: pre;" direction="ltr">Qualitative</text></g><g stroke-linecap="round"><g transform="translate(2605.265253332087 152.29318364724895) rotate(0 -175.93977598426045 51.14602476362802)"><path d="M-0.22 0.16 C-58.83 17.3, -293.4 86.24, -351.66 103.09 M-1.8 -0.8 C-60.05 16.01, -291.44 84.37, -349.49 101.55" stroke="#495057" stroke-width="2" fill="none"></path></g><g transform="translate(2605.265253332087 152.29318364724895) rotate(0 -175.93977598426045 51.14602476362802)"><path d="M-325.09 81.99 C-330.72 90.41, -340.93 95.08, -349.51 100.38 M-325.53 83.83 C-330.61 87.55, -334.8 91.23, -349.7 100.99" stroke="#495057" stroke-width="2" fill="none"></path></g><g transform="translate(2605.265253332087 152.29318364724895) rotate(0 -175.93977598426045 51.14602476362802)"><path d="M-319.28 101.67 C-326.68 104.18, -338.64 102.96, -349.51 100.38 M-319.71 103.51 C-326.21 103.05, -331.63 102.55, -349.7 100.99" stroke="#495057" stroke-width="2" fill="none"></path></g></g><g stroke-linecap="round"><g transform="translate(3121.8794923146324 426.1082336622767) rotate(0 -3.5912396780122435 104.00273211144076)"><path d="M0.22 1.1 C-0.93 35.76, -5.17 173.04, -6.32 207.37 M-1.13 0.63 C-2.5 35, -6.29 171.62, -7.4 205.69" stroke="#000000" stroke-width="2" fill="none"></path></g><g transform="translate(3121.8794923146324 426.1082336622767) rotate(0 -3.5912396780122435 104.00273211144076)"><path d="M-14.98 176.8 C-12.3 186.02, -9.52 198.36, -7.25 206.91 M-16.2 176.9 C-13.75 186.35, -9.93 197.49, -7.11 205.73" stroke="#000000" stroke-width="2" fill="none"></path></g><g transform="translate(3121.8794923146324 426.1082336622767) rotate(0 -3.5912396780122435 104.00273211144076)"><path d="M5.54 177.42 C1.12 186.46, -3.21 198.58, -7.25 206.91 M4.32 177.51 C-0.23 186.76, -3.41 197.69, -7.11 205.73" stroke="#000000" stroke-width="2" fill="none"></path></g></g><g stroke-linecap="round" transform="translate(759.7574521019324 985.8999125162777) rotate(0 255.99998474121094 69.50004577636719)"><path d="M-0.38 -0.53 C103.34 -1.97, 207.45 -0.96, 512.76 0.57 M0.32 0.03 C134.26 -0.16, 268.75 -0.58, 512.05 -0.3 M513.64 1.14 C511.67 49, 513.24 96.42, 510.5 138.92 M512.15 -0.67 C510.69 33.27, 512.11 67.6, 511.15 139.54 M512.78 139.23 C402.21 136.97, 292.99 136.42, -0.27 139.43 M511.72 139.04 C310.46 138.78, 108.68 138.89, 0.13 138.96 M-0.23 137.74 C-0.43 107.94, 0.71 78.16, 1.27 1.18 M-0.09 139.88 C1.1 87.6, 0.82 36.82, 0.5 -0.79" stroke="#5c940d" stroke-width="1" fill="none"></path></g><g transform="translate(868.2775235130666 1026.6499201456722) rotate(0 149 32.5)"><text x="149" y="46" font-family="Virgil, Segoe UI Emoji" font-size="51.20001220703126px" fill="#5c940d" text-anchor="middle" style="white-space: pre;" direction="ltr">Dissociation</text></g><g stroke-linecap="round"><g transform="translate(1470.5778048095435 853.8037636546323) rotate(0 -130.27273836603854 62.04777282401676)"><path d="M-0.47 0.96 C-44.07 21.64, -218.42 103.28, -262.03 123.67 M1.48 0.43 C-41.69 20.81, -216.15 101.89, -259.67 122.02" stroke="#000000" stroke-width="2" fill="none"></path></g><g transform="translate(1470.5778048095435 853.8037636546323) rotate(0 -130.27273836603854 62.04777282401676)"><path d="M-236.8 99.74 C-242.62 105.1, -248.87 112.21, -259.94 120.62 M-238.73 101.17 C-247.12 107.86, -253.64 116.04, -259.25 121.97" stroke="#000000" stroke-width="2" fill="none"></path></g><g transform="translate(1470.5778048095435 853.8037636546323) rotate(0 -130.27273836603854 62.04777282401676)"><path d="M-228.17 118.35 C-236.21 118.75, -244.75 120.92, -259.94 120.62 M-230.1 119.79 C-241.64 119.49, -251.37 120.75, -259.25 121.97" stroke="#000000" stroke-width="2" fill="none"></path></g></g><g stroke-linecap="round" transform="translate(2857.0245928083114 1661.316365559898) rotate(0 255.99998474121094 69.50004577636719)"><path d="M0.68 -0.66 C106.85 1.03, 213.28 0.64, 511.36 -0.52 M0.33 -0.02 C202.01 0.54, 403.57 0.47, 512.15 0.31 M511 1.21 C514.13 31.25, 513.48 58.1, 510.17 137.73 M511.62 0.15 C510.77 43.8, 510.88 87.44, 512.94 138.52 M511.71 139.36 C310.1 139.44, 107.39 139.65, -0.24 138.26 M512.4 139.29 C341.33 138.77, 170.77 138.4, -0.12 139.32 M0.53 137.35 C1.37 91, -1.02 42.06, 0.64 0.67 M0.77 139.82 C0.36 110.15, 0.01 83.93, 0.91 -0.86" stroke="#5f3dc4" stroke-width="1" fill="none"></path></g><g transform="translate(2926.544664219444 1702.0663731892926) rotate(0 188 32.5)"><text x="188" y="46" font-family="Virgil, Segoe UI Emoji" font-size="51.20001220703126px" fill="#5f3dc4" text-anchor="middle" style="white-space: pre;" direction="ltr">Wish Fulfillment</text></g><g stroke-linecap="round" transform="translate(2855.395483107788 1844.0375061035174) rotate(0 255.99998474121094 69.50004577636719)"><path d="M-0.19 0.66 C109.89 -1.01, 219.16 -2.27, 512.79 0.39 M0.18 -0.15 C191.26 -0.68, 383.18 -0.91, 512.11 0 M512.31 0.15 C514.12 41.98, 513.14 89.02, 511.7 139.41 M512.45 0.24 C512.14 40.42, 511.9 79.87, 512.26 139.34 M511.95 138.58 C377.56 136.66, 243.59 137.13, -0.27 139.79 M512.35 139.24 C319.43 138.91, 126.53 138.74, -0.12 138.77 M1.86 139.2 C-0.2 96.19, -0.9 51.58, -1.22 -0.74 M-0.31 139.25 C0.61 87.81, -0.54 38.43, 0.13 0.77" stroke="#5f3dc4" stroke-width="1" fill="none"></path></g><g transform="translate(2927.9155545189205 1884.787513732912) rotate(0 185 32.5)"><text x="185" y="46" font-family="Virgil, Segoe UI Emoji" font-size="51.20001220703126px" fill="#5f3dc4" text-anchor="middle" style="white-space: pre;" direction="ltr">Problem Solving</text></g><g stroke-linecap="round" transform="translate(2865.657316662011 2018.597050258093) rotate(0 255.99998474121094 69.50004577636719)"><path d="M-0.07 -0.16 C158.1 -1.02, 317.7 -0.57, 512.28 -0.24 M-0.11 0.27 C166.23 1.47, 332.59 1.47, 512.34 0.14 M511.97 0.67 C510.79 51.12, 510.89 101.94, 511.17 140.84 M511.87 -0.86 C513.51 40.1, 513.92 82.1, 512.46 138.24 M512.23 139.26 C338.21 138.32, 165.14 138.87, -0.47 138.44 M512.36 139.29 C347.79 140.15, 182.87 139.61, 0.07 139.37 M1.68 139.96 C1.15 82.98, 1.93 30.35, 0.85 1.71 M0.32 139.05 C-0.55 102.05, -1.78 63.43, 0.71 -0.56" stroke="#5f3dc4" stroke-width="1" fill="none"></path></g><g transform="translate(2897.79274217095 2063.346920558386) rotate(0 231.69230769230762 30)"><text x="231.69230769230765" y="43.000000000000014" font-family="Virgil, Segoe UI Emoji" font-size="47.26154972956731px" fill="#5f3dc4" text-anchor="middle" style="white-space: pre;" direction="ltr">Mental Housekeeping</text></g><g stroke-linecap="round" transform="translate(2868.145472935261 2200.1923493884883) rotate(0 255.99998474121094 69.50004577636719)"><path d="M-0.3 0.76 C123.6 -0.21, 247.68 -0.28, 511.77 -0.43 M0.14 -0.39 C197.47 0.98, 394.54 1.51, 512.01 0.25 M511.32 -0.25 C514.79 30.9, 511.6 66.05, 511.67 140.02 M512.03 -0.93 C513.2 45.78, 513.14 90.07, 512.01 139.29 M512.23 138.68 C386.79 139.79, 260.68 140.57, 0.13 138.85 M512.21 138.6 C350.51 137.22, 189.08 137.45, -0.3 138.84 M1.5 139.85 C-3.29 105.69, -0.42 74.6, 1.7 0.92 M-0.88 138.43 C0.51 100.81, 0.2 60.63, 0.81 -0.82" stroke="#5f3dc4" stroke-width="1" fill="none"></path></g><g transform="translate(3016.9732061365103 2244.9422196887813) rotate(0 115 29.5)"><text x="115" y="42" font-family="Virgil, Segoe UI Emoji" font-size="47.26154972956731px" fill="#5f3dc4" text-anchor="middle" style="white-space: pre;" direction="ltr">Byproduct</text></g><g stroke-linecap="round" transform="translate(1392.833353678383 979.7142755417619) rotate(0 255.99998474121094 69.50004577636719)"><path d="M-0.39 -0.45 C166.81 -0.35, 332.75 0.61, 511.58 0.16 M-0.21 -0.13 C185.98 -0.49, 371.26 -0.73, 511.85 -0.35 M513.33 -0.11 C512.09 43.85, 513.28 85.03, 510.05 137.39 M511.98 0.38 C510.62 51.65, 510.67 102.33, 512.66 138.5 M512.61 139.06 C343.54 137.61, 173.76 137.52, -0.78 138.53 M511.6 138.62 C356.1 140.96, 200.31 141.23, 0.31 138.8 M-0.15 137.57 C-0.27 103.65, 0.5 70.53, 0.98 -1.91 M0.95 138.2 C0.42 83.62, 1.83 30.05, 0.2 0.63" stroke="#a61e4d" stroke-width="1" fill="none"></path></g><g transform="translate(1442.953705851236 1024.4642526535783) rotate(0 217.49988555908203 28.999984741210938)"><text x="217.49988555908212" y="40.99996948242186" font-family="Virgil, Segoe UI Emoji" font-size="45.391280464504085px" fill="#a61e4d" text-anchor="middle" style="white-space: pre;" direction="ltr">Psychoactive Drugs</text></g><g stroke-linecap="round"><g transform="translate(1593.0704808360551 858.2350087466757) rotate(0 70.00183620817461 52.14754952531098)"><path d="M-0.8 -0.38 C22.8 16.93, 117.25 86.82, 140.81 104.44 M0.98 -1.62 C24.56 15.83, 117.09 88.42, 140.26 105.92" stroke="#000000" stroke-width="2" fill="none"></path></g><g transform="translate(1593.0704808360551 858.2350087466757) rotate(0 70.00183620817461 52.14754952531098)"><path d="M111.04 98.1 C118.16 99.91, 126.25 99.89, 139.06 105.96 M111.89 96.8 C120.41 100.94, 132 103.15, 140.51 105.4" stroke="#000000" stroke-width="2" fill="none"></path></g><g transform="translate(1593.0704808360551 858.2350087466757) rotate(0 70.00183620817461 52.14754952531098)"><path d="M123.57 81.85 C127.87 87.35, 133.06 91.08, 139.06 105.96 M124.42 80.55 C128.53 90.17, 135.84 97.94, 140.51 105.4" stroke="#000000" stroke-width="2" fill="none"></path></g></g><g stroke-linecap="round" transform="translate(2637.667053222651 1490.547527494887) rotate(0 255.99998474121094 69.50004577636719)"><path d="M-0.65 0.04 C137.78 1.69, 275.96 1.69, 512.45 0.58 M-0.07 -0.24 C194.87 2.13, 389.88 1.5, 512.08 0.16 M513.01 0.2 C511.4 51.78, 511.09 103.61, 512 139.28 M511.78 -0.77 C512.45 36.15, 512.43 74.61, 512.54 138.26 M511.91 139.33 C317.41 139.23, 121.13 139.31, 0.73 139.77 M511.95 138.93 C357.31 138.02, 203.02 137.97, -0.06 139.37 M0.18 140.39 C0.72 88.09, -1.5 33.84, 1.63 1.96 M-0.72 139.86 C0.78 103.9, 0.65 68.62, -0.69 0.78" stroke="#5f3dc4" stroke-width="1" fill="none"></path></g><g transform="translate(2803.187124633785 1531.2975351242815) rotate(0 92 32.5)"><text x="92" y="46" font-family="Virgil, Segoe UI Emoji" font-size="51.20001220703126px" fill="#5f3dc4" text-anchor="middle" style="white-space: pre;" direction="ltr">Dreams</text></g><g stroke-linecap="round"><g transform="translate(3182.211663204309 1426.1472017563874) rotate(0 -65.04850411168627 28.946032992454434)"><path d="M-0.81 -0.16 C-22.43 9.3, -108.72 48.11, -130.53 57.71 M0.97 -1.29 C-20.67 8.28, -108.8 49.21, -131.06 59.19" stroke="#000000" stroke-width="2" fill="none"></path></g><g transform="translate(3182.211663204309 1426.1472017563874) rotate(0 -65.04850411168627 28.946032992454434)"><path d="M-109.96 39.45 C-114.66 42.3, -120.07 49.65, -131.42 58.31 M-110.38 37.71 C-113.67 42.47, -119.88 47.98, -131.28 59.92" stroke="#000000" stroke-width="2" fill="none"></path></g><g transform="translate(3182.211663204309 1426.1472017563874) rotate(0 -65.04850411168627 28.946032992454434)"><path d="M-101.43 58.12 C-108.25 56.59, -115.62 59.63, -131.42 58.31 M-101.85 56.37 C-107.01 57, -115.08 58.43, -131.28 59.92" stroke="#000000" stroke-width="2" fill="none"></path></g></g><g stroke-linecap="round" transform="translate(1984.5004272460938 268.13102358863625) rotate(0 255.99998474121094 69.50004577636719)"><path d="M-0.29 -0.73 C195.59 1.35, 391.38 1.56, 511.55 -0.39 M0.27 0.36 C134.45 0.92, 268.79 1.38, 511.86 -0.05 M511.64 -1.58 C509.76 33, 509.72 63.49, 513.8 138.73 M511.42 -0.63 C511.79 32.17, 512.37 63.36, 512.97 139.32 M512.65 138.86 C316.62 139.05, 120.25 138.71, -0.75 139.43 M512.26 139.07 C380.89 137.02, 250.19 137.38, -0.32 138.76 M-0.73 139.09 C-1.05 84.13, -2.08 28.94, 1.18 -0.24 M0.83 138.04 C-0.23 84.23, 0.09 30.78, -0.06 -0.66" stroke="#e67700" stroke-width="1" fill="none"></path></g><g transform="translate(2103.1384029290602 290.66810565544074) rotate(0 146 48)"><text x="146" y="34" font-family="Virgil, Segoe UI Emoji" font-size="37.53327316178368px" fill="#e67700" text-anchor="middle" style="white-space: pre;" direction="ltr">High Awareness </text><text x="146" y="82" font-family="Virgil, Segoe UI Emoji" font-size="37.53327316178368px" fill="#e67700" text-anchor="middle" style="white-space: pre;" direction="ltr">(Consciousness)</text></g><g stroke-linecap="round"><g transform="translate(2214.599278233958 421.4357023072089) rotate(0 -299.008131416429 135.01274003804565)"><path d="M-0.67 0.34 C-100.3 45.29, -498.95 225.59, -598.76 270.56 M1.17 -0.53 C-98.43 44.03, -498.96 224.21, -599.19 268.98" stroke="#495057" stroke-width="2" fill="none"></path></g><g transform="translate(2214.599278233958 421.4357023072089) rotate(0 -299.008131416429 135.01274003804565)"><path d="M-577.11 249.71 C-580.42 252.8, -585.77 258.83, -597.98 268.56 M-577.03 248.96 C-584.55 254.25, -591.17 262.35, -598.2 269.88" stroke="#495057" stroke-width="2" fill="none"></path></g><g transform="translate(2214.599278233958 421.4357023072089) rotate(0 -299.008131416429 135.01274003804565)"><path d="M-568.71 268.44 C-573.95 267.45, -581.11 269.46, -597.98 268.56 M-568.63 267.69 C-578.77 266.91, -588.12 268.9, -598.2 269.88" stroke="#495057" stroke-width="2" fill="none"></path></g></g><g stroke-linecap="round" transform="translate(2887.1670532226526 263.13097272600635) rotate(0 255.99998474121094 69.50004577636719)"><path d="M0.25 0.79 C133.59 1.24, 266.9 2.14, 511.37 -0.54 M-0.06 -0.39 C175.76 -1.75, 352.06 -1.45, 511.77 -0.26 M513.97 -0.44 C512.44 55.93, 510.84 108.83, 511.24 138.6 M512.16 0.42 C510.68 50.76, 509.81 101.87, 512.69 138.06 M511.49 139.63 C404.52 139.79, 296.22 139.69, -0.26 139.38 M511.96 139.4 C377.86 140.04, 243.73 140.14, 0.33 139.03 M-0.4 139.97 C-0.66 90.05, -0.13 40.37, 0.46 0.34 M0.74 138.57 C-1.25 105.11, -0.31 70.34, -0.23 0.53" stroke="#e67700" stroke-width="1" fill="none"></path></g><g transform="translate(3015.305028905619 285.6680547928113) rotate(0 136.5 48)"><text x="136.5" y="34" font-family="Virgil, Segoe UI Emoji" font-size="37.53327316178368px" fill="#e67700" text-anchor="middle" style="white-space: pre;" direction="ltr">Low Awareness</text><text x="136.5" y="82" font-family="Virgil, Segoe UI Emoji" font-size="37.53327316178368px" fill="#e67700" text-anchor="middle" style="white-space: pre;" direction="ltr">(Unconscious)</text></g><g stroke-linecap="round"><g transform="translate(2268.5387907325603 421.3943540020623) rotate(0 6.619970990723232 127.11038826053687)"><path d="M0.86 0.04 C2.86 42.31, 9.16 211.53, 11.05 254.05 M-0.14 -0.99 C2.32 41.39, 11.41 212.88, 13.38 255.21" stroke="#495057" stroke-width="2" fill="none"></path></g><g transform="translate(2268.5387907325603 421.3943540020623) rotate(0 6.619970990723232 127.11038826053687)"><path d="M1.77 226.35 C3.21 234.37, 7.65 240.13, 11.71 254.03 M1.22 228.51 C4.37 233.35, 6.44 238.35, 13.16 255.51" stroke="#495057" stroke-width="2" fill="none"></path></g><g transform="translate(2268.5387907325603 421.3943540020623) rotate(0 6.619970990723232 127.11038826053687)"><path d="M22.27 225.32 C19.13 233.72, 19 239.71, 11.71 254.03 M21.71 227.48 C20.53 232.63, 18.27 237.85, 13.16 255.51" stroke="#495057" stroke-width="2" fill="none"></path></g></g><g stroke-linecap="round" transform="translate(10 1276.1310032435838) rotate(0 255.99998474121094 69.50004577636719)"><path d="M-0.55 0 C173.2 -2.17, 346.86 -1.22, 511.42 -0.02 M0.17 0.12 C173.08 -1.34, 345.29 -1.32, 511.62 0.28 M512.93 0.86 C513.87 28.11, 512.76 56.72, 511.04 137.46 M511.74 -0.77 C511.12 44.86, 511.61 88.49, 511.96 139.68 M511.48 139.52 C384.7 137.07, 259.45 137.89, 0.61 139.77 M512.09 138.96 C406.11 139.28, 299.76 139.78, -0.16 139.26 M-1.77 139.34 C-1.15 85.18, 0.63 30.93, 1.92 1.03 M0.74 139.66 C1.1 105.2, 0.91 73.28, -0.24 0.96" stroke="#5c940d" stroke-width="1" fill="none"></path></g><g transform="translate(155.02007141113427 1316.8810108729783) rotate(0 112.5 32.5)"><text x="112.5" y="46" font-family="Virgil, Segoe UI Emoji" font-size="51.20001220703126px" fill="#5c940d" text-anchor="middle" style="white-space: pre;" direction="ltr">Hyponosis</text></g><g stroke-linecap="round"><g transform="translate(884.637215478182 1132.7753215814828) rotate(0 -179.84055416628962 110.67215483404277)"><path d="M-0.43 1.16 C-60.37 37.94, -300.5 184.24, -360.75 220.63 M1.55 0.72 C-58.38 37.2, -300.49 182.44, -361.23 219.12" stroke="#000000" stroke-width="2" fill="none"></path></g><g transform="translate(884.637215478182 1132.7753215814828) rotate(0 -179.84055416628962 110.67215483404277)"><path d="M-340.44 197.27 C-344.41 200.13, -350.3 205.65, -361.82 217.87 M-342.43 195.76 C-348.36 203.19, -352.36 208.53, -360.99 218.57" stroke="#000000" stroke-width="2" fill="none"></path></g><g transform="translate(884.637215478182 1132.7753215814828) rotate(0 -179.84055416628962 110.67215483404277)"><path d="M-329.86 214.86 C-336.06 213.96, -344.18 215.76, -361.82 217.87 M-331.85 213.35 C-340.81 215.7, -347.81 216.06, -360.99 218.57" stroke="#000000" stroke-width="2" fill="none"></path></g></g><g stroke-linecap="round" transform="translate(752.8336588541642 1287.7974664597295) rotate(0 255.99998474121094 69.50004577636719)"><path d="M0.45 0.58 C190.98 1.61, 381.49 1.13, 511.93 0.66 M-0.26 -0.33 C144.42 -1.45, 289.34 -1.33, 512.25 0.3 M511.96 0.3 C514.19 29.84, 512.45 59.43, 510.22 138.74 M512.77 -0.88 C513.51 31.75, 511.84 60.89, 511.02 139.97 M511.29 138.58 C319.69 139.25, 126.5 139.35, 0.05 138.79 M512.04 138.87 C376.45 139.75, 240.08 139.68, -0.01 138.8 M0.87 140.3 C0.19 104.17, 1.13 73.43, 1.84 0.75 M-0.99 139.18 C-1.96 89.57, -1.97 37.93, 0.18 0.46" stroke="#5c940d" stroke-width="1" fill="none"></path></g><g transform="translate(795.3537302652985 1328.547474089124) rotate(0 215 32.5)"><text x="215" y="46" font-family="Virgil, Segoe UI Emoji" font-size="51.20001220703126px" fill="#5c940d" text-anchor="middle" style="white-space: pre;" direction="ltr">Highway Hyponosis</text></g><g stroke-linecap="round"><g transform="translate(1023.9830397304231 1130.5223151076782) rotate(0 -3.2311395297538184 75.24840633786505)"><path d="M0.63 0.12 C-0.29 25.31, -4.75 126.38, -5.93 151.36 M-0.5 -0.86 C-1.58 23.99, -6.49 124.46, -7.09 149.79" stroke="#000000" stroke-width="2" fill="none"></path></g><g transform="translate(1023.9830397304231 1130.5223151076782) rotate(0 -3.2311395297538184 75.24840633786505)"><path d="M-16.07 120.57 C-12.03 127.18, -11.91 134.4, -7.16 148.8 M-15.84 121.88 C-13.83 126.94, -11.2 134.73, -6.17 150.16" stroke="#000000" stroke-width="2" fill="none"></path></g><g transform="translate(1023.9830397304231 1130.5223151076782) rotate(0 -3.2311395297538184 75.24840633786505)"><path d="M4.44 121.35 C3.03 127.86, -2.29 134.87, -7.16 148.8 M4.67 122.66 C1.83 127.61, -0.38 135.22, -6.17 150.16" stroke="#000000" stroke-width="2" fill="none"></path></g></g><g stroke-linecap="round"><g transform="translate(746.4321439377673 1353.9673613217258) rotate(0 -102.61397869496159 0.7603549359311046)"><path d="M-0.03 0.11 C-34.23 0.47, -170.41 0.76, -204.73 1.28 M-1.5 -0.89 C-35.83 -0.3, -170.98 2.01, -205.2 2.41" stroke="#000000" stroke-width="2" fill="none"></path></g><g transform="translate(746.4321439377673 1353.9673613217258) rotate(0 -102.61397869496159 0.7603549359311046)"><path d="M-176.99 -6.77 C-188.18 -5.08, -194.56 -0.13, -206.91 3.87 M-177.23 -7.42 C-189.27 -4.37, -200.33 -0.1, -204.72 3.3" stroke="#000000" stroke-width="2" fill="none"></path></g><g transform="translate(746.4321439377673 1353.9673613217258) rotate(0 -102.61397869496159 0.7603549359311046)"><path d="M-176.69 13.75 C-187.83 8.4, -194.31 6.31, -206.91 3.87 M-176.93 13.1 C-189.04 7.94, -200.22 4.03, -204.72 3.3" stroke="#000000" stroke-width="2" fill="none"></path></g></g><g transform="translate(581.5004730224573 1380.6310083298467) rotate(0 70 23)"><text x="70" y="32" font-family="Virgil, Segoe UI Emoji" font-size="36px" fill="#000000" text-anchor="middle" style="white-space: pre;" direction="ltr">Explains</text></g><g stroke-linecap="round"><g transform="translate(3274.9631272309034 797.8199738091203) rotate(0 8.157339788050194 20.753810206107573)"><path d="M0.85 -0.28 C3.69 6.65, 14.01 34.43, 16.48 41.4 M-0.17 -1.48 C2.61 5.69, 13.32 35.57, 15.81 42.99" stroke="#000000" stroke-width="2" fill="none"></path></g><g transform="translate(3274.9631272309034 797.8199738091203) rotate(0 8.157339788050194 20.753810206107573)"><path d="M1.32 26.72 C5.44 29.64, 9.26 35.73, 15.24 44.14 M0.88 26.68 C7.01 32.51, 11.3 37.14, 16.77 42.38" stroke="#000000" stroke-width="2" fill="none"></path></g><g transform="translate(3274.9631272309034 797.8199738091203) rotate(0 8.157339788050194 20.753810206107573)"><path d="M15.62 21.72 C16.13 26, 16.35 33.35, 15.24 44.14 M15.18 21.68 C16.33 29.37, 15.7 35.73, 16.77 42.38" stroke="#000000" stroke-width="2" fill="none"></path></g></g><g stroke-linecap="round" transform="translate(3072.5575924827954 642.9496053059897) rotate(0 255.99998474121094 69.50004577636719)"><path d="M-0.41 -0.77 C193.53 -0.61, 387.05 -0.71, 511.84 0.61 M-0.03 -0.33 C152.6 1.51, 305.32 1.25, 511.98 0.1 M511.26 1.45 C511.68 29.62, 511.98 57.85, 510.92 140.4 M511.33 0.34 C511.2 31.04, 512.14 62.97, 511.4 138.19 M512.54 139.51 C379.49 138.02, 246.49 137.16, 0.23 138.6 M511.86 138.69 C362.87 139.49, 213.89 138.97, -0.39 138.87 M-0.45 140.44 C-0.89 95.54, 0.6 51.09, -1.77 -1.51 M-0.3 138.82 C0.3 108.78, 1.91 79.22, -0.26 0.21" stroke="#5f3dc4" stroke-width="1" fill="none"></path></g><g transform="translate(3202.5775214785644 665.7507306612474) rotate(0 128.5 49.5)"><text x="128.5" y="35.5" font-family="Virgil, Segoe UI Emoji" font-size="39.38463416466328px" fill="#5f3dc4" text-anchor="middle" style="white-space: pre;" direction="ltr">Falling asleep</text><text x="128.5" y="85" font-family="Virgil, Segoe UI Emoji" font-size="39.38463416466328px" fill="#5f3dc4" text-anchor="middle" style="white-space: pre;" direction="ltr"></text></g><g transform="translate(3264.000371297201 727.2977156866173) rotate(0 69.5 20)"><text x="69.5" y="28" font-family="Virgil, Segoe UI Emoji" font-size="32.00000000000016px" fill="#5f3dc4" text-anchor="middle" style="white-space: pre;" direction="ltr">(stage 1)</text></g><g stroke-linecap="round" transform="translate(3073.333719889324 848.7976495651988) rotate(0 255.99998474121094 69.50004577636719)"><path d="M0.1 -0.36 C171.71 0.75, 344.62 0.33, 511.91 -0.24 M0.34 0 C175.1 1.51, 350.5 1.04, 512.18 -0.35 M512.51 -1.91 C510.79 38.03, 512.09 73, 510.65 139.89 M511.71 -0.26 C512.4 29.47, 513.25 57.15, 511.33 138.58 M512.76 138.57 C334.98 137.8, 158.31 136.94, -0.06 139.55 M511.68 138.96 C318.51 138.95, 125.93 139.07, 0 139.18 M1.03 138.25 C-0.19 90.03, 1.34 40.02, 1.03 0.71 M-0.27 138.4 C0.61 106.83, 0.46 75.63, -0.94 0.3" stroke="#5f3dc4" stroke-width="1" fill="none"></path></g><g transform="translate(3227.853648885095 871.5987749204564) rotate(0 104 25)"><text x="104" y="35" font-family="Virgil, Segoe UI Emoji" font-size="39.38463416466328px" fill="#5f3dc4" text-anchor="middle" style="white-space: pre;" direction="ltr">Light sleep</text></g><g transform="translate(3257.2764987037335 933.1457599458267) rotate(0 77 20)"><text x="77" y="28" font-family="Virgil, Segoe UI Emoji" font-size="32.00000000000016px" fill="#5f3dc4" text-anchor="middle" style="white-space: pre;" direction="ltr">(stage 2)</text></g><g stroke-linecap="round" transform="translate(3074.666646321617 1056.4641534714488) rotate(0 255.99998474121094 69.50004577636719)"><path d="M-0.55 -0.42 C175.22 -1.38, 351.18 -0.65, 511.63 0.76 M-0.23 0.29 C153.8 -0.8, 306.68 -0.9, 511.61 -0.05 M511.55 -1.34 C509.43 36.54, 510.95 74.06, 510.7 138.28 M512.24 0.59 C512.36 47.07, 511.6 95.65, 511.08 138.66 M512.34 139.04 C352.1 138.22, 191.82 138.53, -0.1 139.44 M511.94 139.22 C315.58 138.57, 119.59 139.14, 0.22 138.93 M-0.85 139.83 C-2.67 88.62, -1.97 38.47, 1.27 -0.22 M-0.24 139.93 C-2.17 109.07, -0.84 76.8, -0.55 -0.95" stroke="#5f3dc4" stroke-width="1" fill="none"></path></g><g transform="translate(3255.686575317388 1079.2652788267064) rotate(0 77.5 25)"><text x="77.5" y="35" font-family="Virgil, Segoe UI Emoji" font-size="39.38463416466328px" fill="#5f3dc4" text-anchor="middle" style="white-space: pre;" direction="ltr">NREM 3</text></g><g transform="translate(3259.6094251360264 1140.8122638520767) rotate(0 76 20)"><text x="76" y="28" font-family="Virgil, Segoe UI Emoji" font-size="32.00000000000016px" fill="#5f3dc4" text-anchor="middle" style="white-space: pre;" direction="ltr">(stage 3)</text></g><g stroke-linecap="round"><g transform="translate(3291.36076451625 994.2594166254607) rotate(0 2.775774129065212 24.366502907172844)"><path d="M0.15 0.36 C1.4 8.57, 5.87 40.23, 6.79 48.13 M-1.24 -0.5 C-0.06 7.95, 4.4 41.07, 5.96 49.23" stroke="#000000" stroke-width="2" fill="none"></path></g><g transform="translate(3291.36076451625 994.2594166254607) rotate(0 2.775774129065212 24.366502907172844)"><path d="M-5.42 28 C-4.76 31.29, -2.47 39.04, 6.87 47.53 M-6.22 27.91 C-2.97 32.23, -1.25 38.12, 5.57 49.62" stroke="#000000" stroke-width="2" fill="none"></path></g><g transform="translate(3291.36076451625 994.2594166254607) rotate(0 2.775774129065212 24.366502907172844)"><path d="M11.27 25.36 C7.92 29.3, 6.22 37.68, 6.87 47.53 M10.47 25.26 C9.8 30.36, 7.59 36.87, 5.57 49.62" stroke="#000000" stroke-width="2" fill="none"></path></g></g><g stroke-linecap="round" transform="translate(3088.6671346028725 1279.7143518357057) rotate(0 255.99998474121094 69.50004577636719)"><path d="M-0.7 0.05 C156 -1.08, 312.74 -1.46, 512.29 0.45 M0.01 -0.23 C150.45 0.84, 301.35 0.37, 512.06 -0.32 M513.71 -0.42 C512.67 41.75, 512.32 80.19, 512.68 140.63 M512.68 0.58 C511.18 54.09, 513.02 107.54, 511.5 138.15 M511.82 139.59 C354.91 138.17, 199.48 138.15, 0.19 138.87 M512.14 139.12 C316.53 138.46, 120.81 138.49, -0.3 139.12 M-1.99 137.08 C1.79 82.41, 0.35 30.66, 1.91 -0.7 M-0.03 139.83 C-0.14 106.2, -0.54 72.43, -0.73 -0.23" stroke="#5f3dc4" stroke-width="1" fill="none"></path></g><g transform="translate(3248.1870635986434 1302.5154771909633) rotate(0 99 25)"><text x="99" y="35" font-family="Virgil, Segoe UI Emoji" font-size="39.38463416466328px" fill="#5f3dc4" text-anchor="middle" style="white-space: pre;" direction="ltr">REM sleep</text></g><g transform="translate(3274.109913417282 1364.0624622163336) rotate(0 75.5 20)"><text x="75.5" y="28" font-family="Virgil, Segoe UI Emoji" font-size="32.00000000000016px" fill="#5f3dc4" text-anchor="middle" style="white-space: pre;" direction="ltr">(stage 4)</text></g><g stroke-linecap="round"><g transform="translate(3323.532189939775 1211.1457715741676) rotate(0 -3.020816920098696 31.48592592137595)"><path d="M-1.05 0.69 C-1.96 11.12, -5.75 51.23, -6.65 61.5 M0.6 0 C0.16 10.73, -3.73 52.91, -4.5 62.97" stroke="#000000" stroke-width="2" fill="none"></path></g><g transform="translate(3323.532189939775 1211.1457715741676) rotate(0 -3.020816920098696 31.48592592137595)"><path d="M-11.2 32.23 C-11.26 38.51, -8.27 46.03, -6.4 64.75 M-13.24 33.25 C-10.14 44.19, -6.59 55.76, -4.07 62.11" stroke="#000000" stroke-width="2" fill="none"></path></g><g transform="translate(3323.532189939775 1211.1457715741676) rotate(0 -3.020816920098696 31.48592592137595)"><path d="M9.25 33.96 C5.09 39.71, 3.97 46.88, -6.4 64.75 M7.21 34.98 C2.65 45.39, -1.46 56.31, -4.07 62.11" stroke="#000000" stroke-width="2" fill="none"></path></g></g><g stroke-linecap="round" transform="translate(1311.9169108073074 1279.5475580124637) rotate(0 255.99998474121094 69.50004577636719)"><path d="M0.67 0.06 C178.55 1.1, 357.89 1.76, 511.28 -0.26 M-0.39 -0.38 C165.82 0.04, 331.77 -0.53, 512.09 0.35 M513.05 -1.92 C510.45 44.82, 511.22 87.42, 512.58 140.92 M511.35 -0.79 C510.44 31.46, 511.06 62.67, 512.51 138.09 M511.62 138.25 C385.23 139.31, 257.59 139.82, -0.32 139.15 M511.97 138.76 C391.66 140.75, 271.48 141.09, 0.35 138.71 M1.37 138.81 C1.4 111.94, -1.96 81.19, -0.29 -0.13 M-0.76 138.89 C-1.18 108.03, -1.21 75.27, 0.56 0.62" stroke="#a61e4d" stroke-width="1" fill="none"></path></g><g transform="translate(1415.5372629801604 1324.2976877121707) rotate(0 170.73913043478296 33)"><text x="170.7391304347826" y="47" font-family="Virgil, Segoe UI Emoji" font-size="51.652173913043484px" fill="#a61e4d" text-anchor="middle" style="white-space: pre;" direction="ltr">Hallucinogens </text></g><g stroke-linecap="round" transform="translate(1907.9170939127725 1272.0475580124642) rotate(0 255.99998474121094 69.50004577636719)"><path d="M-0.34 0.62 C115.68 1.4, 232.82 0.8, 512.13 -0.02 M-0.39 0.02 C131.65 0.85, 262.9 1.36, 511.83 -0.17 M513.04 -1.98 C511.17 45.4, 512.5 92.93, 510.93 137.75 M512.89 -0.19 C513.34 28.49, 513.2 57.09, 511.05 139.58 M511.73 138.37 C370.84 137.78, 231.29 138.49, -0.4 138.23 M512.38 139.21 C374.62 139.6, 237.17 139.27, 0.01 138.75 M0.61 138.14 C-2.32 101.46, 0.63 60.22, -0.68 1.83 M-0.32 138.09 C1.02 106.53, 1.25 74.09, 0.68 -0.24" stroke="#a61e4d" stroke-width="1" fill="none"></path></g><g transform="translate(2024.2765765204076 1316.7976877121712) rotate(0 158 32.5)"><text x="158" y="46" font-family="Virgil, Segoe UI Emoji" font-size="51.652173913043484px" fill="#a61e4d" text-anchor="middle" style="white-space: pre;" direction="ltr">Depressants</text></g><g stroke-linecap="round" transform="translate(2457.916788736995 1272.5477411179324) rotate(0 255.99998474121094 69.50004577636719)"><path d="M-0.1 -0.62 C116.66 0.1, 235.1 0.03, 512.04 -0.06 M0.33 -0.01 C165.96 1.46, 331.48 1.46, 512.01 0.05 M513.24 -0.04 C510.95 31.63, 510.85 64.88, 512.91 139.03 M511.94 -0.46 C512.53 47.35, 512.69 94.2, 511.52 139.79 M511.33 138.35 C376.43 137.1, 241.86 137.66, 0 138.26 M512.16 139.23 C400.24 138.53, 288.77 138.53, 0.28 138.67 M0.32 137.96 C-0.26 83.5, 0.55 32.71, 0.44 -0.6 M-0.59 139.9 C-0.56 100.75, 0.55 62.75, 0.69 0.87" stroke="#a61e4d" stroke-width="1" fill="none"></path></g><g transform="translate(2578.776454450097 1315.2979013352176) rotate(0 147.68436842698338 36.49993896484375)"><text x="147.68436842698299" y="50.9998779296874" font-family="Virgil, Segoe UI Emoji" font-size="58.009267545463985px" fill="#a61e4d" text-anchor="middle" style="white-space: pre;" direction="ltr">Stimulants</text></g><g stroke-linecap="round"><g transform="translate(1623.8886315016443 1130.025905528535) rotate(0 -38.03905985016536 74.58339039793952)"><path d="M-0.13 -1.19 C-12.73 23.91, -62.35 125.22, -74.78 150.36 M-1.66 0.8 C-14.53 25.62, -63.61 124.39, -75.95 148.84" stroke="#000000" stroke-width="2" fill="none"></path></g><g transform="translate(1623.8886315016443 1130.025905528535) rotate(0 -38.03905985016536 74.58339039793952)"><path d="M-74.49 118.35 C-71.91 129.46, -74.38 139.72, -75.4 148.95 M-72.49 118.82 C-74 129.92, -74.44 139.31, -76.76 147.87" stroke="#000000" stroke-width="2" fill="none"></path></g><g transform="translate(1623.8886315016443 1130.025905528535) rotate(0 -38.03905985016536 74.58339039793952)"><path d="M-56.14 127.53 C-60.31 135.23, -69.56 142.1, -75.4 148.95 M-54.14 128.01 C-61.98 135.88, -68.73 142.1, -76.76 147.87" stroke="#000000" stroke-width="2" fill="none"></path></g></g><g stroke-linecap="round"><g transform="translate(2260.193588862967 1104.917177148406) rotate(0 -57.27858261248184 79.45364917460631)"><path d="M-0.67 -1.03 C-19.93 25.34, -95.66 132.13, -114.54 158.64 M1.19 1.04 C-18.37 27.54, -96.44 133.65, -115.74 159.94" stroke="#000000" stroke-width="2" fill="none"></path></g><g transform="translate(2260.193588862967 1104.917177148406) rotate(0 -57.27858261248184 79.45364917460631)"><path d="M-109.03 130.33 C-111.22 142.45, -115.53 152.27, -114.18 160.05 M-106.52 131.36 C-109.45 140.17, -113.33 150.05, -116.73 159.03" stroke="#000000" stroke-width="2" fill="none"></path></g><g transform="translate(2260.193588862967 1104.917177148406) rotate(0 -57.27858261248184 79.45364917460631)"><path d="M-92.5 142.49 C-101.13 149.81, -111.84 154.92, -114.18 160.05 M-89.99 143.52 C-98.73 147.99, -108.34 153.66, -116.73 159.03" stroke="#000000" stroke-width="2" fill="none"></path></g></g><g stroke-linecap="round"><g transform="translate(2347.6048019122627 835.5511308781392) rotate(0 10.576985474081994 53.02647849874813)"><path d="M0.16 -0.97 C3.66 16.77, 16.58 88.05, 20.26 105.84 M-1.22 1.14 C2.7 19.07, 18.52 89.43, 22.37 107.02" stroke="#000000" stroke-width="2" fill="none"></path></g><g transform="translate(2347.6048019122627 835.5511308781392) rotate(0 10.576985474081994 53.02647849874813)"><path d="M4.62 79.82 C8.82 89.11, 12.53 93.91, 20.95 108.93 M5.94 81.51 C9.62 87.52, 13.38 92.55, 22.19 107.9" stroke="#000000" stroke-width="2" fill="none"></path></g><g transform="translate(2347.6048019122627 835.5511308781392) rotate(0 10.576985474081994 53.02647849874813)"><path d="M24.66 75.37 C24.07 85.75, 23.01 91.6, 20.95 108.93 M25.98 77.06 C24.98 84.15, 24.06 90.22, 22.19 107.9" stroke="#000000" stroke-width="2" fill="none"></path></g></g><g stroke-linecap="round" transform="translate(2037.4169108073074 946.5475274948856) rotate(0 255.99998474121094 69.50004577636719)"><path d="M0.07 0.53 C132.74 2.44, 265.91 1.97, 512.11 0.3 M0.23 -0.27 C171.23 0.32, 342.96 0.14, 511.65 -0.18 M511.85 1.36 C511.44 28.94, 510.35 56.15, 511.87 139.5 M512.62 0.79 C513.33 46.14, 512.62 92.06, 511.35 138.92 M512.64 139.66 C391.64 138.06, 270.34 138.17, 0.63 139.55 M511.62 138.65 C392.15 140.08, 273.24 139.87, -0.36 139.33 M0.79 137.66 C-3.24 90.76, 0.54 44.96, -1.9 1.91 M0.75 139.87 C0.53 97.47, 0.47 56.03, -0.61 0.6" stroke="#a61e4d" stroke-width="1" fill="none"></path></g><g transform="translate(2087.5372629801604 991.297504606702) rotate(0 217.49988555908203 28.999984741210938)"><text x="217.49988555908212" y="40.99996948242186" font-family="Virgil, Segoe UI Emoji" font-size="45.391280464504085px" fill="#a61e4d" text-anchor="middle" style="white-space: pre;" direction="ltr">Psychoactive Drugs</text></g><g stroke-linecap="round"><g transform="translate(2291.936710971813 1099.505550622527) rotate(0 210.75736603510632 85.50698249720756)"><path d="M1.2 0.14 C71.43 28.66, 351.22 141.88, 421.15 170.53 M0.37 -0.82 C70.52 27.9, 350.6 143.32, 420.57 171.84" stroke="#000000" stroke-width="2" fill="none"></path></g><g transform="translate(2291.936710971813 1099.505550622527) rotate(0 210.75736603510632 85.50698249720756)"><path d="M390.83 171.8 C398.23 171.22, 409.12 170.18, 421.53 172.17 M390.72 170.93 C398.1 171.8, 404.7 170.84, 421.41 172.15" stroke="#000000" stroke-width="2" fill="none"></path></g><g transform="translate(2291.936710971813 1099.505550622527) rotate(0 210.75736603510632 85.50698249720756)"><path d="M398.62 152.82 C403.76 157.61, 412.47 161.87, 421.53 172.17 M398.51 151.94 C404 157.46, 408.7 161.15, 421.41 172.15" stroke="#000000" stroke-width="2" fill="none"></path></g></g><g stroke-linecap="round"><g transform="translate(2712.3902798373692 1649.2143480787834) rotate(0 0.8426838779923855 331.56218677071894)"><path d="M-0.34 -0.77 C-0.56 109.62, -0.4 552.13, -0.32 662.68 M1.68 1.45 C1.76 111.96, 2.41 553.57, 2.01 663.89" stroke="#000000" stroke-width="2" fill="none"></path></g></g><g stroke-linecap="round"><g transform="translate(2710.1400723902316 1746.3532663465326) rotate(0 70.39910170652183 -0.32128816627368906)"><path d="M0.87 0.19 C24.43 -0.16, 117.72 -1.05, 140.92 -1.04 M-0.13 -0.76 C23.31 -0.4, 116.2 0.53, 139.98 0.39" stroke="#000000" stroke-width="2" fill="none"></path></g><g transform="translate(2710.1400723902316 1746.3532663465326) rotate(0 70.39910170652183 -0.32128816627368906)"><path d="M112.07 10.58 C118.79 6.32, 128.33 6.36, 139.34 1.58 M112.14 11.03 C122.89 7.7, 133.37 3.31, 139.58 0.54" stroke="#000000" stroke-width="2" fill="none"></path></g><g transform="translate(2710.1400723902316 1746.3532663465326) rotate(0 70.39910170652183 -0.32128816627368906)"><path d="M112.14 -9.94 C119.02 -8.78, 128.53 -3.32, 139.34 1.58 M112.21 -9.49 C123 -5.1, 133.46 -1.75, 139.58 0.54" stroke="#000000" stroke-width="2" fill="none"></path></g></g><g stroke-linecap="round"><g transform="translate(2716.5284260789977 1896.9777029585016) rotate(0 66.46555820368212 1.4616772857972364)"><path d="M0.42 0.7 C22.75 1.36, 111.75 2.73, 133.75 2.91 M-0.82 0.02 C21.43 0.45, 110.46 0.8, 133.08 1.3" stroke="#000000" stroke-width="2" fill="none"></path></g><g transform="translate(2716.5284260789977 1896.9777029585016) rotate(0 66.46555820368212 1.4616772857972364)"><path d="M105.94 12.13 C114.4 7.04, 120.39 3.64, 132.29 2.39 M105.19 11.41 C115.52 8.52, 124.69 3.7, 132.48 0.82" stroke="#000000" stroke-width="2" fill="none"></path></g><g transform="translate(2716.5284260789977 1896.9777029585016) rotate(0 66.46555820368212 1.4616772857972364)"><path d="M106.18 -8.39 C114.39 -7.75, 120.31 -5.42, 132.29 2.39 M105.44 -9.11 C115.75 -4.87, 124.83 -2.56, 132.48 0.82" stroke="#000000" stroke-width="2" fill="none"></path></g></g><g stroke-linecap="round"><g transform="translate(2722.842450294831 2119.826446396478) rotate(0 63.638101232756526 0.1035916179160381)"><path d="M-0.47 -0.15 C20.47 -0.08, 104.3 -0.02, 125.49 0.4 M1.48 -1.28 C22.82 -1.07, 106.98 1.18, 127.75 1.48" stroke="#000000" stroke-width="2" fill="none"></path></g><g transform="translate(2722.842450294831 2119.826446396478) rotate(0 63.638101232756526 0.1035916179160381)"><path d="M99.09 9.71 C106.02 9.05, 117.32 5.94, 127.5 2.87 M99.33 11.74 C109 8.48, 119.81 3.56, 128.29 2.24" stroke="#000000" stroke-width="2" fill="none"></path></g><g transform="translate(2722.842450294831 2119.826446396478) rotate(0 63.638101232756526 0.1035916179160381)"><path d="M99.53 -10.81 C106.32 -5.62, 117.5 -2.88, 127.5 2.87 M99.77 -8.78 C109.43 -4.66, 120.08 -2.21, 128.29 2.24" stroke="#000000" stroke-width="2" fill="none"></path></g></g><g stroke-linecap="round"><g transform="translate(2725.578299085075 2315.970502309283) rotate(0 64.2502577793357 2.1092384459120694)"><path d="M-1.1 0.32 C20.06 0.89, 105.95 2.64, 127.3 3.23 M0.53 -0.56 C22.04 0.24, 108.13 4.37, 129.6 4.78" stroke="#000000" stroke-width="2" fill="none"></path></g><g transform="translate(2725.578299085075 2315.970502309283) rotate(0 64.2502577793357 2.1092384459120694)"><path d="M101.59 12.72 C110.5 9.41, 120.95 9.69, 131.19 4.55 M101.43 14.77 C108.97 12.15, 114.92 9.37, 128.99 4.85" stroke="#000000" stroke-width="2" fill="none"></path></g><g transform="translate(2725.578299085075 2315.970502309283) rotate(0 64.2502577793357 2.1092384459120694)"><path d="M102.32 -7.79 C110.95 -4.34, 121.16 2.7, 131.19 4.55 M102.15 -5.74 C109.47 -3.04, 115.24 -0.51, 128.99 4.85" stroke="#000000" stroke-width="2" fill="none"></path></g></g><g stroke-linecap="round"><g transform="translate(3325.5517663223127 413.5275948239787) rotate(0 298.16038770761133 85.11121065874363)"><path d="M0.5 -0.28 C99.84 28.24, 497.53 141.84, 597.02 170.49 M-0.7 -1.46 C98.38 27.26, 496.38 143.18, 595.96 171.69" stroke="#000000" stroke-width="2" fill="none"></path></g><g transform="translate(3325.5517663223127 413.5275948239787) rotate(0 298.16038770761133 85.11121065874363)"><path d="M565.57 173.36 C576.39 173.19, 589.79 173.52, 594.26 170.84 M565.25 173.76 C573.58 173.45, 582.09 172.49, 595.24 172.38" stroke="#000000" stroke-width="2" fill="none"></path></g><g transform="translate(3325.5517663223127 413.5275948239787) rotate(0 298.16038770761133 85.11121065874363)"><path d="M571.27 153.65 C579.81 161.03, 591.03 168.9, 594.26 170.84 M570.95 154.04 C577.77 159.21, 584.68 163.75, 595.24 172.38" stroke="#000000" stroke-width="2" fill="none"></path></g></g><g stroke-linecap="round" transform="translate(3877.000305175785 616.1904456728989) rotate(0 255.99998474121094 69.50004577636719)"><path d="M0.46 0.16 C155.67 -0.97, 310.73 -1.24, 511.62 0.07 M-0.27 0.01 C153.94 1.26, 307.75 0.72, 512.38 -0.17 M510.74 -1.67 C511.49 43.04, 511.66 86.12, 511.7 140.86 M512.07 0.16 C513.15 54.73, 513.17 108.43, 511.41 138.31 M512.19 139.33 C350.56 139.76, 190.76 139.02, -0.43 138.81 M512.18 139.04 C376.43 140.93, 240.65 140.69, 0.03 138.99 M-1.8 139.45 C-0.25 104.35, -0.6 73.36, -0.41 0.93 M1 139.36 C0.53 99.52, 0.32 60.61, -0.09 -0.2" stroke="#1864ab" stroke-width="1" fill="none"></path></g><g transform="translate(3925.663233729776 640.4539668158068) rotate(0 218.5000000000009 47.24324324324334)"><text x="218.50000000000074" y="33.2432432432434" font-family="Virgil, Segoe UI Emoji" font-size="37.79460360552822px" fill="#1864ab" text-anchor="middle" style="white-space: pre;" direction="ltr">Freudian's personality  </text><text x="218.50000000000074" y="80.4864864864868" font-family="Virgil, Segoe UI Emoji" font-size="37.79460360552822px" fill="#1864ab" text-anchor="middle" style="white-space: pre;" direction="ltr">theory</text></g><g stroke-linecap="round" transform="translate(2488.7860194614987 513.3809218633755) rotate(0 255.99998474121094 69.50004577636719)"><path d="M0.3 0.75 C142.54 -0.42, 282.91 0.77, 511.43 0.49 M-0.27 0.36 C169.58 -1.73, 339.56 -2.09, 512.34 -0.28 M512.29 -1.06 C511.87 35.98, 513.84 68.96, 511.98 138.22 M512.68 -0.86 C510.65 36.1, 510.76 74.24, 511.11 139.79 M511.66 139.25 C350.1 139.15, 188.86 138.93, 0.45 138.49 M512.25 139.24 C327.68 137.37, 143.97 136.71, 0.14 139.12 M-0.59 137.01 C-0.17 96.72, -2.5 49.12, -0.71 0.86 M0.34 139.1 C0.43 97.93, -0.07 56.58, 0.6 0.48" stroke="#e67700" stroke-width="1" fill="none"></path></g><g transform="translate(2560.806090872633 534.6364239982645) rotate(0 187.5 52.74725274725279)"><text x="187.5" y="36.747252747252745" font-family="Virgil, Segoe UI Emoji" font-size="42.19781225854228px" fill="#e67700" text-anchor="middle" style="white-space: pre;" direction="ltr">Flexible Correction</text><text x="187.5" y="89.49450549450549" font-family="Virgil, Segoe UI Emoji" font-size="42.19781225854228px" fill="#e67700" text-anchor="middle" style="white-space: pre;" direction="ltr">Model</text></g><g stroke-linecap="round"><g transform="translate(2474.4072768252154 552.6259244053058) rotate(0 -65.85526628547268 -69.21399828919289)"><path d="M0.79 0.12 C-21.48 -22.84, -110.47 -113.98, -132.5 -136.79 M-0.25 -0.87 C-22.26 -24.25, -108.4 -115.58, -130.38 -138.54" stroke="#495057" stroke-width="2" fill="none"></path></g><g transform="translate(2474.4072768252154 552.6259244053058) rotate(0 -65.85526628547268 -69.21399828919289)"><path d="M-103.34 -127.03 C-112.97 -130.21, -123.37 -134.18, -130.72 -138.18 M-102.54 -125.89 C-113.28 -130.21, -122.91 -136.15, -130.33 -138.45" stroke="#495057" stroke-width="2" fill="none"></path></g><g transform="translate(2474.4072768252154 552.6259244053058) rotate(0 -65.85526628547268 -69.21399828919289)"><path d="M-118.22 -112.9 C-122.14 -121.7, -126.72 -131.2, -130.72 -138.18 M-117.42 -111.77 C-122.65 -121.19, -126.8 -132.32, -130.33 -138.45" stroke="#495057" stroke-width="2" fill="none"></path></g></g><g stroke-linecap="round"><g transform="translate(3037.536099680532 407.47414784835973) rotate(0 -60.80567957546555 48.157576428496895)"><path d="M-0.01 0.34 C-19.91 16.25, -100.38 79.76, -120.49 95.82 M-1.47 -0.52 C-21.47 15.47, -101.58 80.42, -121.61 96.84" stroke="#495057" stroke-width="2" fill="none"></path></g><g transform="translate(3037.536099680532 407.47414784835973) rotate(0 -60.80567957546555 48.157576428496895)"><path d="M-105.65 70.54 C-111.05 75.76, -112.86 80.23, -121.25 96.18 M-106.84 70.19 C-110.36 77.07, -112.51 82.07, -121.52 96.59" stroke="#495057" stroke-width="2" fill="none"></path></g><g transform="translate(3037.536099680532 407.47414784835973) rotate(0 -60.80567957546555 48.157576428496895)"><path d="M-92.69 86.45 C-100.9 88.29, -105.45 89.38, -121.25 96.18 M-93.88 86.1 C-100.16 89.42, -105.14 90.94, -121.52 96.59" stroke="#495057" stroke-width="2" fill="none"></path></g></g><g stroke-linecap="round" transform="translate(4066.0122099376895 989.4880647205173) rotate(0 84.57141331263938 69.50004577636719)"><path d="M-0.26 -1.36 C59.37 2.1, 117.51 -1.38, 169.01 1.59 M0.04 0.47 C61.59 1.72, 121.58 1.45, 168.81 -0.67 M168.04 1.05 C168.85 50.8, 169.48 102.79, 169.58 137.58 M169.23 -0.06 C168.47 35.64, 167.44 72.84, 168.73 139.13 M169.32 137.78 C106.86 138.04, 44.2 137.93, -1.25 137.4 M169.25 138.29 C126.94 141.04, 82.95 140.84, 0.76 138.35 M1.56 139.3 C0.99 92.42, 1.68 48.12, -0.86 -1.59 M-0.99 139.45 C1.81 97.67, 1.31 55.3, 0.37 0.27" stroke="#1864ab" stroke-width="1" fill="none"></path></g><g transform="translate(4108.53228134882 1027.3230144348527) rotate(0 42.3784194528871 30.642857142856883)"><text x="42.37841945288714" y="43.28571428571374" font-family="Virgil, Segoe UI Emoji" font-size="49.28232506617461px" fill="#1864ab" text-anchor="middle" style="white-space: pre;" direction="ltr">Ego</text></g><g stroke-linecap="round" transform="translate(4063.976495651972 1163.4166361490861) rotate(0 84.57141331263938 69.50004577636719)"><path d="M-0.03 -1.06 C53.05 -1.01, 104.52 -0.04, 167.59 0.52 M-0.66 -0.11 C38.66 -0.98, 77.37 -1, 169.13 0.34 M170.99 1.46 C169.58 32.18, 167.34 60.96, 169.07 140.12 M169.62 -0.49 C169.81 46.59, 168.23 92.47, 168.63 138.66 M169.62 140.49 C128.69 140.59, 89.5 138.53, -0.95 140.45 M169.28 138.93 C101.81 137.7, 35.25 137.91, -0.29 139.64 M0.07 137.52 C-1.08 90.25, -1.85 41.87, -0.45 -0.32 M0.57 139.37 C0.66 97.97, 0.69 55.88, -0.87 0.46" stroke="#1864ab" stroke-width="1" fill="none"></path></g><g transform="translate(4091.501714626591 1178.3944430062788) rotate(0 59.7580645161288 57)"><text x="59.75806451612902" y="40" font-family="Virgil, Segoe UI Emoji" font-size="45.30794401245085px" fill="#1864ab" text-anchor="middle" style="white-space: pre;" direction="ltr">Super</text><text x="59.75806451612902" y="97" font-family="Virgil, Segoe UI Emoji" font-size="45.30794401245085px" fill="#1864ab" text-anchor="middle" style="white-space: pre;" direction="ltr">Ego</text></g><g stroke-linecap="round" transform="translate(4063.976495651972 830.5594932919435) rotate(0 84.57141331263938 69.50004577636719)"><path d="M-0.44 1.7 C60.73 -1.91, 119.48 -1, 168.56 -0.22 M-0.93 0.08 C57.68 -0.2, 115.22 -0.71, 169.3 0.91 M168.21 0.67 C168.19 39.89, 168.66 76.75, 169.94 138.07 M168.99 0.32 C169.71 40.35, 170.3 79.79, 168.32 138.12 M167.46 139.89 C107.61 136.65, 44.8 139.22, 0.26 140.02 M169.66 138.1 C120.84 140.06, 74.61 138.99, 0.43 139.02 M-1.05 137.8 C-2.49 107.47, -0.69 73.69, -1.96 -1.3 M-0.9 139.43 C-0.08 108.97, -1.44 79.7, 0.1 -0.9" stroke="#1864ab" stroke-width="1" fill="none"></path></g><g transform="translate(4119.946415087419 868.3944430062788) rotate(0 27.5 31)"><text x="27.5" y="44" font-family="Virgil, Segoe UI Emoji" font-size="49.28232506617461px" fill="#1864ab" text-anchor="middle" style="white-space: pre;" direction="ltr">Id</text></g><g stroke-linecap="round"><g transform="translate(4370.486887006236 765.9144246075907) rotate(0 0.04619393862776633 263.1039954824297)"><path d="M-0.3 -0.29 C-0.21 87.79, -0.4 440.07, -0.46 527.69 M1.75 -1.49 C1.72 86.36, -1.06 438.21, -1.65 526.17" stroke="#000000" stroke-width="2" fill="none"></path></g></g><g stroke-linecap="round"><g transform="translate(4367.605786686314 899.5418743589601) rotate(0 -60.20612063896715 -0.2688710303245898)"><path d="M1.05 -0.91 C-19.09 -1.1, -100.42 -1.74, -120.67 -1.76 M0.14 1.23 C-20.14 1.3, -101.28 0.51, -121.46 -0.2" stroke="#000000" stroke-width="2" fill="none"></path></g><g transform="translate(4367.605786686314 899.5418743589601) rotate(0 -60.20612063896715 -0.2688710303245898)"><path d="M-94.58 -9.38 C-101.86 -5.73, -109.55 -2.89, -121.49 -1.48 M-92.88 -10.35 C-102.92 -6.54, -111.01 -4.3, -120.99 -0.31" stroke="#000000" stroke-width="2" fill="none"></path></g><g transform="translate(4367.605786686314 899.5418743589601) rotate(0 -60.20612063896715 -0.2688710303245898)"><path d="M-95 11.14 C-102.03 8.4, -109.59 4.86, -121.49 -1.48 M-93.3 10.16 C-103.22 7.45, -111.18 3.18, -120.99 -0.31" stroke="#000000" stroke-width="2" fill="none"></path></g></g><g stroke-linecap="round"><g transform="translate(4369.034358114892 1060.9704457875325) rotate(0 -60.602575344563775 -1.4075063080726977)"><path d="M-1.1 0.7 C-21.45 0.45, -101.85 -1.23, -121.73 -1.54 M0.53 0.02 C-19.47 -0.6, -99.19 -2.99, -119.42 -3.52" stroke="#000000" stroke-width="2" fill="none"></path></g><g transform="translate(4369.034358114892 1060.9704457875325) rotate(0 -60.602575344563775 -1.4075063080726977)"><path d="M-89.78 -14.24 C-99.93 -9.17, -108.73 -5.3, -119.33 -3.87 M-91.58 -13.42 C-102.48 -9.28, -111.61 -6.54, -119.32 -2.8" stroke="#000000" stroke-width="2" fill="none"></path></g><g transform="translate(4369.034358114892 1060.9704457875325) rotate(0 -60.602575344563775 -1.4075063080726977)"><path d="M-90.36 6.27 C-100.31 4.55, -108.91 1.62, -119.33 -3.87 M-92.16 7.1 C-102.94 3.43, -111.85 -1.62, -119.32 -2.8" stroke="#000000" stroke-width="2" fill="none"></path></g></g><g stroke-linecap="round"><g transform="translate(4369.03435811489 1250.9704457875325) rotate(0 -59.98968151826375 -1.285890957528295)"><path d="M-1.04 0.18 C-21 -0.03, -100.02 -0.62, -120.1 -1.04 M0.61 -0.77 C-19.39 -1.34, -100.06 -2.67, -120.59 -2.76" stroke="#000000" stroke-width="2" fill="none"></path></g><g transform="translate(4369.03435811489 1250.9704457875325) rotate(0 -59.98968151826375 -1.285890957528295)"><path d="M-91.98 -11.24 C-98.59 -11.17, -108.38 -8.85, -122.49 -1.88 M-92.91 -11.82 C-101.35 -9.61, -110.2 -7.32, -119.68 -2.75" stroke="#000000" stroke-width="2" fill="none"></path></g><g transform="translate(4369.03435811489 1250.9704457875325) rotate(0 -59.98968151826375 -1.285890957528295)"><path d="M-92.22 9.28 C-98.8 3.82, -108.53 0.62, -122.49 -1.88 M-93.14 8.7 C-101.56 4.21, -110.33 -0.2, -119.68 -2.75" stroke="#000000" stroke-width="2" fill="none"></path></g></g><g stroke-linecap="round" transform="translate(3644.9288766043555 984.5237790062256) rotate(0 127.42855616978159 70.92861720493875)"><path d="M-0.86 1.2 C71.9 0.27, 142.2 2.97, 255.62 -1.38 M-0.45 -0.03 C94.35 -0.81, 190.06 -0.53, 255.22 0.48 M253.3 1.01 C252.43 54.95, 252.33 106.08, 253.29 141.21 M254.1 0.92 C255.11 51.27, 255.27 101.92, 255.33 141.59 M253.3 142.13 C169.98 140.32, 83.61 140.28, -0.27 140.5 M254.61 141.79 C199.35 143.73, 143.2 143.34, -0.11 142.34 M-1.12 140.28 C-2.32 91.36, -1.54 40.27, -1.28 -0.59 M-0.08 141.24 C1.66 112.7, 0.54 84.84, 0.01 0.93" stroke="#1864ab" stroke-width="1" fill="none"></path></g><g transform="translate(3652.7075518001693 1006.6444430062757) rotate(0 123.0241935483873 48.42857142857156)"><text x="123.02419354838736" y="34.428571428571566" font-family="Virgil, Segoe UI Emoji" font-size="38.494719348924484px" fill="#1864ab" text-anchor="middle" style="white-space: pre;" direction="ltr">Intrapsychic </text><text x="123.02419354838736" y="82.85714285714313" font-family="Virgil, Segoe UI Emoji" font-size="38.494719348924484px" fill="#1864ab" text-anchor="middle" style="white-space: pre;" direction="ltr">conflicts</text></g><g stroke-linecap="round"><g transform="translate(4054.986739067268 881.0327782895938) rotate(0 -74.07228844838482 55.96621974649031)"><path d="M-1.04 0.65 C-25.61 19.36, -123.2 93.43, -147.73 111.99 M0.61 -0.06 C-24.1 18.37, -123.77 92.04, -148.76 110.42" stroke="#000000" stroke-width="2" fill="none"></path></g><g transform="translate(4054.986739067268 881.0327782895938) rotate(0 -74.07228844838482 55.96621974649031)"><path d="M-131.09 85.16 C-135.01 91.06, -139.51 98.95, -147.38 112.01 M-133.05 84.93 C-135.97 92, -141.36 99.36, -148.41 110.71" stroke="#000000" stroke-width="2" fill="none"></path></g><g transform="translate(4054.986739067268 881.0327782895938) rotate(0 -74.07228844838482 55.96621974649031)"><path d="M-118.9 101.68 C-126.13 102.94, -133.96 106.3, -147.38 112.01 M-120.87 101.45 C-127.45 103.73, -136.43 106.22, -148.41 110.71" stroke="#000000" stroke-width="2" fill="none"></path></g></g><g stroke-linecap="round"><g transform="translate(4057.011617276896 1065.6460846747684) rotate(0 -74.16691688807168 -0.8241894358513946)"><path d="M0.87 0.45 C-23.7 0.2, -123.21 -1.65, -147.98 -2.1 M-0.14 -0.35 C-24.85 -0.36, -124.43 -0.53, -149.2 -0.66" stroke="#000000" stroke-width="2" fill="none"></path></g><g transform="translate(4057.011617276896 1065.6460846747684) rotate(0 -74.16691688807168 -0.8241894358513946)"><path d="M-120.22 -11.69 C-128.37 -8.64, -135.66 -3.63, -150.23 -0.91 M-120.39 -9.96 C-126.49 -8.38, -132.87 -6.47, -148.33 -1.3" stroke="#000000" stroke-width="2" fill="none"></path></g><g transform="translate(4057.011617276896 1065.6460846747684) rotate(0 -74.16691688807168 -0.8241894358513946)"><path d="M-120.29 8.83 C-128.31 6.75, -135.59 6.64, -150.23 -0.91 M-120.45 10.57 C-126.46 8.03, -132.83 5.84, -148.33 -1.3" stroke="#000000" stroke-width="2" fill="none"></path></g></g><g stroke-linecap="round"><g transform="translate(4043.67291356824 1228.4920448642454) rotate(0 -68.11755439210901 -51.37680415496641)"><path d="M0.08 -1.03 C-22.34 -18.17, -112.72 -85.19, -135.11 -101.94 M-1.34 1.05 C-23.91 -16.54, -114.06 -86.4, -136.32 -103.8" stroke="#000000" stroke-width="2" fill="none"></path></g><g transform="translate(4043.67291356824 1228.4920448642454) rotate(0 -68.11755439210901 -51.37680415496641)"><path d="M-109.47 -95.4 C-114.21 -96.3, -120.67 -100.42, -136.56 -103.92 M-107.4 -93.64 C-117.49 -98.41, -129.05 -101.2, -135.37 -104" stroke="#000000" stroke-width="2" fill="none"></path></g><g transform="translate(4043.67291356824 1228.4920448642454) rotate(0 -68.11755439210901 -51.37680415496641)"><path d="M-122.07 -79.2 C-123.77 -84.18, -127.06 -92.38, -136.56 -103.92 M-120 -77.44 C-125.71 -87.9, -132.8 -96.44, -135.37 -104" stroke="#000000" stroke-width="2" fill="none"></path></g></g><g transform="translate(3907.190766107473 1081.4523962111634) rotate(0 76.5625 15.625)"><text x="76.56250000000006" y="22.25000000000001" font-family="Virgil, Segoe UI Emoji" font-size="25.00000000000001px" fill="#000000" text-anchor="middle" style="white-space: pre;" direction="ltr">regulated by</text></g><g stroke-linecap="round"><g transform="translate(3785.940766107473 1140.7023962111634) rotate(0 -172.57566377674357 296.06086503833524)"><path d="M-0.66 0.4 C5.53 62.17, 104.9 273.07, 37.61 371.76 C-29.67 470.45, -330.62 556.04, -404.38 592.55 M1.2 -0.43 C7.15 62.03, 104.22 274.68, 36.46 373.17 C-31.29 471.66, -331.73 554.14, -405.34 590.5" stroke="#000000" stroke-width="2" fill="none"></path></g><g transform="translate(3785.940766107473 1140.7023962111634) rotate(0 -172.57566377674357 296.06086503833524)"><path d="M16.45 24.86 C9.5 16.18, 5.18 6.65, -2.6 0.26 M15.85 26.24 C10.78 16.97, 3.36 7.45, -0.24 -0.59" stroke="#000000" stroke-width="2" fill="none"></path></g><g transform="translate(3785.940766107473 1140.7023962111634) rotate(0 -172.57566377674357 296.06086503833524)"><path d="M-3.53 29.55 C-3.68 19.37, -1.14 8.23, -2.6 0.26 M-4.13 30.93 C-1.96 19.88, -2.18 8.67, -0.24 -0.59" stroke="#000000" stroke-width="2" fill="none"></path></g><g transform="translate(3785.940766107473 1140.7023962111634) rotate(0 -172.57566377674357 296.06086503833524)"><path d="M-382.05 570.14 C-390.69 576.79, -397.13 582.63, -407.29 590.35 M-382.65 571.52 C-390.38 578.4, -400.03 585.02, -404.93 589.5" stroke="#000000" stroke-width="2" fill="none"></path></g><g transform="translate(3785.940766107473 1140.7023962111634) rotate(0 -172.57566377674357 296.06086503833524)"><path d="M-374.67 589.29 C-386.03 589.33, -395 588.6, -407.29 590.35 M-375.27 590.67 C-385.47 590.69, -397.77 590.41, -404.93 589.5" stroke="#000000" stroke-width="2" fill="none"></path></g></g><g transform="translate(3824.5407661074732 1509.7023962111634) rotate(0 223 64.5)"><text x="223" y="30" font-family="Virgil, Segoe UI Emoji" font-size="33.59999999999999px" fill="#000000" text-anchor="middle" style="white-space: pre;" direction="ltr">Use the unconscious to</text><text x="223" y="73" font-family="Virgil, Segoe UI Emoji" font-size="33.59999999999999px" fill="#000000" text-anchor="middle" style="white-space: pre;" direction="ltr">store dangerous thoughts </text><text x="223" y="116" font-family="Virgil, Segoe UI Emoji" font-size="33.59999999999999px" fill="#000000" text-anchor="middle" style="white-space: pre;" direction="ltr"></text></g><g transform="translate(2578.2899724566723 436.5595390683043) rotate(0 136.5 34)"><text x="136.5" y="24" font-family="Virgil, Segoe UI Emoji" font-size="26.666666666666252px" fill="#000000" text-anchor="middle" style="white-space: pre;" direction="ltr">Use efforts to gain</text><text x="136.5" y="58" font-family="Virgil, Segoe UI Emoji" font-size="26.666666666666252px" fill="#000000" text-anchor="middle" style="white-space: pre;" direction="ltr"> higher consciousness</text></g></svg>